<svg width="194" height="100" viewBox="0 0 194 100" fill="none" xmlns="http://www.w3.org/2000/svg">
<path d="M94.112 76.72C90.32 76.72 87.416 75.64 85.4 73.48C83.432 71.32 82.448 68.272 82.448 64.336V37.264C82.448 33.328 83.432 30.28 85.4 28.12C87.416 25.96 90.32 24.88 94.112 24.88C97.904 24.88 100.784 25.96 102.752 28.12C104.768 30.28 105.776 33.328 105.776 37.264V42.592H98.288V36.76C98.288 33.64 96.968 32.08 94.328 32.08C91.688 32.08 90.368 33.64 90.368 36.76V64.912C90.368 67.984 91.688 69.52 94.328 69.52C96.968 69.52 98.288 67.984 98.288 64.912V57.208H105.776V64.336C105.776 68.272 104.768 71.32 102.752 73.48C100.784 75.64 97.904 76.72 94.112 76.72ZM110.515 25.6H122.251C126.331 25.6 129.307 26.56 131.179 28.48C133.051 30.352 133.987 33.256 133.987 37.192V40.288C133.987 45.52 132.259 48.832 128.803 50.224V50.368C130.723 50.944 132.067 52.12 132.835 53.896C133.651 55.672 134.059 58.048 134.059 61.024V69.88C134.059 71.32 134.107 72.496 134.203 73.408C134.299 74.272 134.539 75.136 134.923 76H126.859C126.571 75.184 126.379 74.416 126.283 73.696C126.187 72.976 126.139 71.68 126.139 69.808V60.592C126.139 58.288 125.755 56.68 124.987 55.768C124.267 54.856 122.995 54.4 121.171 54.4H118.435V76H110.515V25.6ZM121.315 47.2C122.899 47.2 124.075 46.792 124.843 45.976C125.659 45.16 126.066 43.792 126.066 41.872V37.984C126.066 36.16 125.731 34.84 125.059 34.024C124.435 33.208 123.427 32.8 122.035 32.8H118.435V47.2H121.315ZM139.554 25.6H161.154V32.8H147.474V46.12H158.346V53.32H147.474V68.8H161.154V76H139.554V25.6ZM165.71 25.6H177.806C181.742 25.6 184.694 26.656 186.662 28.768C188.63 30.88 189.614 33.976 189.614 38.056V63.544C189.614 67.624 188.63 70.72 186.662 72.832C184.694 74.944 181.742 76 177.806 76H165.71V25.6ZM177.662 68.8C178.958 68.8 179.942 68.416 180.614 67.648C181.334 66.88 181.694 65.632 181.694 63.904V37.696C181.694 35.968 181.334 34.72 180.614 33.952C179.942 33.184 178.958 32.8 177.662 32.8H173.63V68.8H177.662Z" fill="#1F2433"/>
<path fill-rule="evenodd" clip-rule="evenodd" d="M0 50L30.9 0L61.8 50L30.9 100L0 50ZM15.45 50L30.9 24.9997L46.35 50L30.9 75.0003L15.45 50V50Z" fill="#0018A8"/>
</svg>
